<svg width="58" height="58" viewBox="0 0 58 58" fill="none" xmlns="http://www.w3.org/2000/svg">
<path d="M0.5 58V9.5C0.5 4.52944 4.52944 0.5 9.5 0.5H58L0.5 58Z" fill="#FF5A5A"/>
<path d="M13.3248 28.1228C12.7724 28.6564 12.1614 28.9795 11.4918 29.0923C10.8224 29.1938 10.1709 29.0835 9.53717 28.7613L10.1535 27.4821C10.5524 27.6418 10.9532 27.694 11.3559 27.6388C11.753 27.5778 12.104 27.4 12.409 27.1055C12.7255 26.7998 12.9063 26.4861 12.9516 26.1644C13.0025 25.8372 12.8974 25.5383 12.6362 25.2679C12.5306 25.1585 12.4074 25.0828 12.2667 25.0408C12.1205 24.993 11.9822 24.9708 11.8521 24.9741C11.7276 24.972 11.5687 25.0032 11.3752 25.0677C11.1817 25.1322 11.0222 25.1917 10.8968 25.2461C10.7658 25.2947 10.5834 25.3764 10.3494 25.4911C10.0414 25.6329 9.80191 25.7418 9.63085 25.8181C9.46555 25.8887 9.23505 25.9668 8.93936 26.0521C8.64387 26.1262 8.39154 26.1586 8.18237 26.1493C7.97895 26.1344 7.75082 26.0767 7.49797 25.9761C7.24532 25.8642 7.0134 25.6989 6.80222 25.4803C6.35762 25.0199 6.16365 24.4621 6.22032 23.8068C6.277 23.1515 6.61032 22.5293 7.22029 21.9402C7.72669 21.4511 8.26347 21.1663 8.83065 21.0856C9.39227 20.9992 9.9168 21.0932 10.4042 21.3676L9.77212 22.5787C9.18784 22.3422 8.63099 22.4796 8.10158 22.9909C7.83111 23.2521 7.67377 23.5152 7.62955 23.7804C7.58553 24.0342 7.66355 24.2647 7.86362 24.4719C7.997 24.61 8.17404 24.6781 8.39472 24.6763C8.62116 24.6689 8.82834 24.6301 9.01627 24.5598C9.20439 24.4783 9.47249 24.3528 9.82056 24.1835C10.0543 24.08 10.231 24.0039 10.3507 23.9551C10.4706 23.8949 10.6472 23.8244 10.8805 23.7436C11.1139 23.6628 11.3072 23.6096 11.4604 23.584C11.6081 23.5526 11.7894 23.5332 12.0046 23.5256C12.2255 23.5125 12.4231 23.5329 12.5976 23.5868C12.7665 23.635 12.9489 23.7146 13.145 23.8255C13.3356 23.9307 13.517 24.0724 13.6893 24.2508C14.2339 24.8148 14.4632 25.4553 14.3772 26.1723C14.2913 26.878 13.9405 27.5282 13.3248 28.1228ZM20.3376 21.1499L18.5874 20.2878L16.1964 22.5969L16.9971 24.3761L15.9009 25.4348L12.3184 17.2168L13.3455 16.2248L21.4252 20.0995L20.3376 21.1499ZM17.3591 19.6723L14.9438 18.5015C14.6463 18.3662 14.3828 18.2259 14.1534 18.0804C14.2685 18.2918 14.3996 18.56 14.5467 18.885L15.6241 21.3479L17.3591 19.6723ZM22.3507 19.2057L16.5153 13.1635L17.5511 12.1632L22.4278 17.2127L25.3626 14.3784L26.3212 15.3711L22.3507 19.2057ZM27.2313 14.4922L21.3959 8.44996L25.332 4.64862L26.274 5.624L23.3737 8.42499L24.7825 9.88375L26.5693 8.15814L27.5113 9.13353L25.7245 10.8591L27.3251 12.5164L30.4153 9.53204L31.3573 10.5074L27.2313 14.4922Z" fill="white"/>
</svg>
